<?xml version="1.0" encoding="utf-8"?>
<!-- Generator: Adobe Illustrator 21.0.2, SVG Export Plug-In . SVG Version: 6.00 Build 0)  -->
<svg version="1.1" id="Layer_1" xmlns="http://www.w3.org/2000/svg" xmlns:xlink="http://www.w3.org/1999/xlink" x="0px" y="0px"
	 viewBox="0 0 25 25" style="enable-background:new 0 0 25 25;" xml:space="preserve">
<style type="text/css">
	.st0{fill:#FFFFFF;}
</style>
<path class="st0" d="M8,20.4H4.6V9.2H8V20.4z M6.3,7.9c-1.1,0-1.8-0.8-1.8-1.7c0-1,0.7-1.7,1.8-1.7c1.1,0,1.8,0.8,1.8,1.7
	C8.1,7.1,7.4,7.9,6.3,7.9z M20.5,20.4h-3.4v-6.2c0-1.4-0.5-2.4-1.7-2.4c-0.9,0-1.5,0.7-1.8,1.3c-0.1,0.2-0.1,0.5-0.1,0.9v6.4h-3.4
	v-7.6c0-1.4,0-2.6-0.1-3.6h3l0.2,1.6h0.1c0.5-0.7,1.6-1.8,3.4-1.8c2.3,0,3.9,1.5,3.9,4.8V20.4z"/>
</svg>
