<?xml version="1.0" encoding="utf-8"?>
<!-- Generator: Adobe Illustrator 21.0.2, SVG Export Plug-In . SVG Version: 6.00 Build 0)  -->
<svg version="1.1" id="Layer_1" xmlns="http://www.w3.org/2000/svg" xmlns:xlink="http://www.w3.org/1999/xlink" x="0px" y="0px"
	 viewBox="0 0 25 25" style="enable-background:new 0 0 25 25;" xml:space="preserve">
<style type="text/css">
	.st0{fill:#FFFFFF;}
</style>
<path class="st0" d="M19.3,8.6c0,0.2,0,0.3,0,0.5c0,5-3.7,10.8-10.5,10.8c-2.1,0-4-0.6-5.7-1.7c0.3,0,0.6,0.1,0.9,0.1
	c1.7,0,3.3-0.6,4.6-1.6c-1.6,0-3-1.1-3.4-2.6C5.4,14,5.6,14,5.9,14c0.3,0,0.7,0,1-0.1c-1.7-0.3-3-1.9-3-3.7c0,0,0,0,0,0
	c0.5,0.3,1.1,0.5,1.7,0.5c-1-0.7-1.6-1.8-1.6-3.2c0-0.7,0.2-1.3,0.5-1.9c1.8,2.3,4.5,3.8,7.6,4c-0.1-0.3-0.1-0.6-0.1-0.9
	c0-2.1,1.7-3.8,3.7-3.8c1.1,0,2,0.5,2.7,1.2c0.8-0.2,1.6-0.5,2.3-0.9C20.4,6,19.8,6.8,19,7.2c0.7-0.1,1.5-0.3,2.1-0.6
	C20.6,7.4,20,8,19.3,8.6z"/>
</svg>
