<?xml version="1.0" encoding="utf-8"?>
<!-- Generator: Adobe Illustrator 21.0.2, SVG Export Plug-In . SVG Version: 6.00 Build 0)  -->
<svg version="1.1" id="Layer_1" xmlns="http://www.w3.org/2000/svg" xmlns:xlink="http://www.w3.org/1999/xlink" x="0px" y="0px"
	 viewBox="0 0 25 25" style="enable-background:new 0 0 25 25;" xml:space="preserve">
<style type="text/css">
	.st0{fill:#FFFFFF;}
</style>
<g>
	<path class="st0" d="M14.1,15.5c-0.3,0-0.5,0.2-0.5,0.4v3.1c0,0.2,0.2,0.4,0.5,0.4c0.3,0,0.5-0.2,0.5-0.4V16
		C14.6,15.7,14.4,15.5,14.1,15.5z"/>
	<path class="st0" d="M10.9,7.9c0,0.5,0,0.8,0.1,1.1c0,0.2,0.1,0.4,0.2,0.6c0.1,0.2,0.3,0.3,0.5,0.4c0.2,0.1,0.4,0.1,0.7,0.1
		c0.3,0,0.5,0,0.7-0.1c0.2-0.1,0.4-0.3,0.5-0.5c0.1-0.2,0.2-0.4,0.2-0.7c0-0.2,0.1-0.6,0.1-1.1V6.3c0-0.4,0-0.7-0.1-0.9
		c0-0.2-0.1-0.4-0.2-0.6c-0.1-0.2-0.3-0.3-0.5-0.5c-0.2-0.1-0.5-0.2-0.7-0.2c-0.3,0-0.6,0.1-0.8,0.3c-0.2,0.2-0.4,0.4-0.5,0.7
		c-0.1,0.3-0.1,0.7-0.1,1.2V7.9z M11.8,5.7c0-0.3,0.2-0.6,0.5-0.6c0.3,0,0.5,0.3,0.5,0.6v2.9c0,0.3-0.2,0.6-0.5,0.6
		c-0.3,0-0.5-0.3-0.5-0.6V5.7z"/>
	<path class="st0" d="M14.6,9.6c0.1,0.1,0.1,0.3,0.3,0.4C15,10,15.2,10,15.3,10c0.2,0,0.3,0,0.4-0.1c0.1-0.1,0.2-0.2,0.3-0.4l0,0.5
		h1.2V4.4h-1v4.3c0,0.2-0.2,0.4-0.4,0.4c-0.2,0-0.4-0.2-0.4-0.4V4.4h-1v3.7c0,0.5,0,0.8,0,0.9C14.5,9.3,14.6,9.4,14.6,9.6z"/>
	<polygon class="st0" points="8.4,10.1 9.6,10.1 9.6,5.9 11,2.3 9.7,2.3 8.9,5 8.2,2.3 6.9,2.3 8.4,5.9 	"/>
	<path class="st0" d="M17.9,11.2H7.1c-1.4,0-2.6,1.2-2.6,2.6v5.9c0,1.4,1.2,2.6,2.6,2.6h10.8c1.4,0,2.6-1.2,2.6-2.6v-5.9
		C20.5,12.4,19.4,11.2,17.9,11.2z M6.8,20.3v-6.2l-1.1,0v-0.9l3.6,0v0.9l-1.3,0l0,6.2H6.8z M11.9,20.3l-0.9,0l0-0.7
		c-0.2,0.5-1.2,1-1.7,0.6C9,20,9,19.7,9,19.4c0-0.2,0-0.5,0-1.1l0-3.3h1.1l0,3.3c0,0.5,0,0.7,0,0.8c0.2,0.5,0.6,0.2,0.7,0
		c0-0.1,0-0.3,0-0.8v-3.3h1.1V20.3z M13.5,19.8l-0.1,0.4l-0.9,0l0-7.1l1.1,0l0,2.1c1-0.9,1.8-0.2,1.8,0.8l0,2.8
		C15.4,20.2,14.7,21,13.5,19.8z M16.1,18.5v-1.6c0-0.5,0-0.9,0.1-1.2c0.1-0.3,0.3-0.5,0.5-0.7c0.7-0.5,2-0.3,2.1,0.6
		c0,0.3,0.1,0.9,0.1,1.4v0.7H17v0.7V19v0.1c0,0.3,0.2,0.5,0.5,0.5h0.2c0.2,0,0.5-0.2,0.5-0.5v-0.5c0,0,0-0.1,0-0.1l0.8,0
		C19.3,20.8,16.1,21.2,16.1,18.5z"/>
	<path class="st0" d="M18.1,16.3c0-0.3-0.2-0.5-0.5-0.5h-0.1c-0.3,0-0.5,0.2-0.5,0.5l0,0.6h1.1L18.1,16.3z"/>
</g>
</svg>
